<mxfile host="Electron" agent="Mozilla/5.0 (Macintosh; Intel Mac OS X 10_15_7) AppleWebKit/537.36 (KHTML, like Gecko) draw.io/26.0.9 Chrome/128.0.6613.186 Electron/32.2.5 Safari/537.36" version="26.0.9">
  <diagram name="Page-1" id="C0-2EgceLjXeArs6kVva">
    <mxGraphModel dx="1434" dy="907" grid="1" gridSize="10" guides="1" tooltips="1" connect="1" arrows="1" fold="1" page="1" pageScale="1" pageWidth="827" pageHeight="1169" math="0" shadow="0">
      <root>
        <mxCell id="0" />
        <mxCell id="1" parent="0" />
        <mxCell id="_LsF1Hzda9S3iVp--8nK-1" value="EC2 Instance&lt;div&gt;(Streamlit app)&lt;/div&gt;" style="sketch=0;points=[[0,0,0],[0.25,0,0],[0.5,0,0],[0.75,0,0],[1,0,0],[0,1,0],[0.25,1,0],[0.5,1,0],[0.75,1,0],[1,1,0],[0,0.25,0],[0,0.5,0],[0,0.75,0],[1,0.25,0],[1,0.5,0],[1,0.75,0]];outlineConnect=0;fontColor=#232F3E;fillColor=#ED7100;strokeColor=#ffffff;dashed=0;verticalLabelPosition=top;verticalAlign=bottom;align=center;html=1;fontSize=12;fontStyle=0;aspect=fixed;shape=mxgraph.aws4.resourceIcon;resIcon=mxgraph.aws4.ec2;labelPosition=center;" vertex="1" parent="1">
          <mxGeometry x="479" y="200" width="80" height="80" as="geometry" />
        </mxCell>
        <mxCell id="_LsF1Hzda9S3iVp--8nK-2" value="Intentify Dashboard" style="text;html=1;align=center;verticalAlign=middle;resizable=0;points=[];autosize=1;strokeColor=none;fillColor=none;fontSize=20;" vertex="1" parent="1">
          <mxGeometry x="300" y="110" width="200" height="40" as="geometry" />
        </mxCell>
        <mxCell id="_LsF1Hzda9S3iVp--8nK-3" value="Deployment&lt;div&gt;S3 Bucket&lt;/div&gt;&lt;div&gt;(app source code)&lt;/div&gt;" style="sketch=0;points=[[0,0,0],[0.25,0,0],[0.5,0,0],[0.75,0,0],[1,0,0],[0,1,0],[0.25,1,0],[0.5,1,0],[0.75,1,0],[1,1,0],[0,0.25,0],[0,0.5,0],[0,0.75,0],[1,0.25,0],[1,0.5,0],[1,0.75,0]];outlineConnect=0;fontColor=#232F3E;fillColor=#7AA116;strokeColor=#ffffff;dashed=0;verticalLabelPosition=bottom;verticalAlign=top;align=center;html=1;fontSize=12;fontStyle=0;aspect=fixed;shape=mxgraph.aws4.resourceIcon;resIcon=mxgraph.aws4.s3;" vertex="1" parent="1">
          <mxGeometry x="489" y="320" width="60" height="60" as="geometry" />
        </mxCell>
        <mxCell id="_LsF1Hzda9S3iVp--8nK-4" value="CloudFront Distribution&lt;div&gt;(global scalability)&lt;/div&gt;" style="sketch=0;points=[[0,0,0],[0.25,0,0],[0.5,0,0],[0.75,0,0],[1,0,0],[0,1,0],[0.25,1,0],[0.5,1,0],[0.75,1,0],[1,1,0],[0,0.25,0],[0,0.5,0],[0,0.75,0],[1,0.25,0],[1,0.5,0],[1,0.75,0]];outlineConnect=0;fontColor=#232F3E;fillColor=#8C4FFF;strokeColor=#ffffff;dashed=0;verticalLabelPosition=top;verticalAlign=bottom;align=center;html=1;fontSize=12;fontStyle=0;aspect=fixed;shape=mxgraph.aws4.resourceIcon;resIcon=mxgraph.aws4.cloudfront;labelPosition=center;" vertex="1" parent="1">
          <mxGeometry x="280" y="200" width="80" height="80" as="geometry" />
        </mxCell>
        <mxCell id="_LsF1Hzda9S3iVp--8nK-5" value="User" style="fillColor=#28A8E0;verticalLabelPosition=bottom;sketch=0;html=1;strokeColor=#ffffff;verticalAlign=top;align=center;points=[[0.145,0.145,0],[0.5,0,0],[0.855,0.145,0],[1,0.5,0],[0.855,0.855,0],[0.5,1,0],[0.145,0.855,0],[0,0.5,0]];pointerEvents=1;shape=mxgraph.cisco_safe.compositeIcon;bgIcon=ellipse;resIcon=mxgraph.cisco_safe.capability.user;" vertex="1" parent="1">
          <mxGeometry x="160" y="200" width="80" height="80" as="geometry" />
        </mxCell>
        <mxCell id="_LsF1Hzda9S3iVp--8nK-6" style="edgeStyle=orthogonalEdgeStyle;rounded=0;orthogonalLoop=1;jettySize=auto;html=1;entryX=0;entryY=0.5;entryDx=0;entryDy=0;entryPerimeter=0;strokeWidth=3;" edge="1" parent="1" source="_LsF1Hzda9S3iVp--8nK-5" target="_LsF1Hzda9S3iVp--8nK-4">
          <mxGeometry relative="1" as="geometry" />
        </mxCell>
        <mxCell id="_LsF1Hzda9S3iVp--8nK-9" style="edgeStyle=orthogonalEdgeStyle;rounded=0;orthogonalLoop=1;jettySize=auto;html=1;exitX=1;exitY=0.5;exitDx=0;exitDy=0;exitPerimeter=0;entryX=0;entryY=0.5;entryDx=0;entryDy=0;entryPerimeter=0;strokeWidth=3;" edge="1" parent="1" source="_LsF1Hzda9S3iVp--8nK-4" target="_LsF1Hzda9S3iVp--8nK-1">
          <mxGeometry relative="1" as="geometry" />
        </mxCell>
        <mxCell id="_LsF1Hzda9S3iVp--8nK-10" style="edgeStyle=orthogonalEdgeStyle;rounded=0;orthogonalLoop=1;jettySize=auto;html=1;entryX=0.5;entryY=1;entryDx=0;entryDy=0;entryPerimeter=0;strokeWidth=1;" edge="1" parent="1" source="_LsF1Hzda9S3iVp--8nK-3" target="_LsF1Hzda9S3iVp--8nK-1">
          <mxGeometry relative="1" as="geometry" />
        </mxCell>
        <mxCell id="_LsF1Hzda9S3iVp--8nK-11" value="Certificate" style="sketch=0;outlineConnect=0;fontColor=#232F3E;gradientColor=none;fillColor=#7AA116;strokeColor=none;dashed=0;verticalLabelPosition=middle;verticalAlign=middle;align=right;html=1;fontSize=12;fontStyle=0;aspect=fixed;pointerEvents=1;shape=mxgraph.aws4.certificate_manager;labelPosition=left;" vertex="1" parent="1">
          <mxGeometry x="450" y="180.00000000000003" width="29" height="38.34" as="geometry" />
        </mxCell>
        <mxCell id="_LsF1Hzda9S3iVp--8nK-12" value="Route 53&lt;div&gt;(custom domain)&lt;/div&gt;" style="sketch=0;points=[[0,0,0],[0.25,0,0],[0.5,0,0],[0.75,0,0],[1,0,0],[0,1,0],[0.25,1,0],[0.5,1,0],[0.75,1,0],[1,1,0],[0,0.25,0],[0,0.5,0],[0,0.75,0],[1,0.25,0],[1,0.5,0],[1,0.75,0]];outlineConnect=0;fontColor=#232F3E;fillColor=#8C4FFF;strokeColor=#ffffff;dashed=0;verticalLabelPosition=bottom;verticalAlign=top;align=center;html=1;fontSize=12;fontStyle=0;aspect=fixed;shape=mxgraph.aws4.resourceIcon;resIcon=mxgraph.aws4.route_53;" vertex="1" parent="1">
          <mxGeometry x="290" y="320" width="60" height="60" as="geometry" />
        </mxCell>
        <mxCell id="_LsF1Hzda9S3iVp--8nK-13" style="edgeStyle=orthogonalEdgeStyle;rounded=0;orthogonalLoop=1;jettySize=auto;html=1;entryX=0.5;entryY=1;entryDx=0;entryDy=0;entryPerimeter=0;" edge="1" parent="1" source="_LsF1Hzda9S3iVp--8nK-12" target="_LsF1Hzda9S3iVp--8nK-4">
          <mxGeometry relative="1" as="geometry" />
        </mxCell>
        <mxCell id="_LsF1Hzda9S3iVp--8nK-16" value="Call Data&lt;div&gt;(text)&lt;/div&gt;" style="image;aspect=fixed;html=1;points=[];align=left;fontSize=12;image=img/lib/azure2/general/File.svg;labelPosition=right;verticalLabelPosition=middle;verticalAlign=middle;" vertex="1" parent="1">
          <mxGeometry x="549" y="210" width="31.65" height="39" as="geometry" />
        </mxCell>
        <mxCell id="_LsF1Hzda9S3iVp--8nK-18" value="Analysis&lt;div&gt;result&lt;/div&gt;&lt;div&gt;(JSON)&lt;/div&gt;" style="dashed=0;outlineConnect=0;html=1;align=left;labelPosition=right;verticalLabelPosition=middle;verticalAlign=middle;shape=mxgraph.weblogos.json" vertex="1" parent="1">
          <mxGeometry x="540.65" y="260" width="40" height="44.14" as="geometry" />
        </mxCell>
        <mxCell id="_LsF1Hzda9S3iVp--8nK-25" style="edgeStyle=orthogonalEdgeStyle;rounded=0;orthogonalLoop=1;jettySize=auto;html=1;exitX=0.5;exitY=1;exitDx=0;exitDy=0;entryX=0.5;entryY=0;entryDx=0;entryDy=0;" edge="1" parent="1" source="_LsF1Hzda9S3iVp--8nK-19" target="_LsF1Hzda9S3iVp--8nK-21">
          <mxGeometry relative="1" as="geometry" />
        </mxCell>
        <mxCell id="_LsF1Hzda9S3iVp--8nK-19" value="Classify" style="rounded=0;whiteSpace=wrap;html=1;fontStyle=3;fontSize=16;" vertex="1" parent="1">
          <mxGeometry x="160" y="520" width="80" height="40" as="geometry" />
        </mxCell>
        <mxCell id="_LsF1Hzda9S3iVp--8nK-20" value="Application Flow" style="text;html=1;align=center;verticalAlign=middle;resizable=0;points=[];autosize=1;strokeColor=none;fillColor=none;fontSize=20;" vertex="1" parent="1">
          <mxGeometry x="309" y="470" width="170" height="40" as="geometry" />
        </mxCell>
        <mxCell id="_LsF1Hzda9S3iVp--8nK-26" style="edgeStyle=orthogonalEdgeStyle;rounded=0;orthogonalLoop=1;jettySize=auto;html=1;exitX=1;exitY=0.5;exitDx=0;exitDy=0;entryX=0;entryY=0.5;entryDx=0;entryDy=0;" edge="1" parent="1" source="_LsF1Hzda9S3iVp--8nK-21" target="_LsF1Hzda9S3iVp--8nK-22">
          <mxGeometry relative="1" as="geometry" />
        </mxCell>
        <mxCell id="_LsF1Hzda9S3iVp--8nK-21" value="Preprocess" style="rounded=0;whiteSpace=wrap;html=1;" vertex="1" parent="1">
          <mxGeometry x="160" y="600" width="80" height="40" as="geometry" />
        </mxCell>
        <mxCell id="_LsF1Hzda9S3iVp--8nK-27" style="edgeStyle=orthogonalEdgeStyle;rounded=0;orthogonalLoop=1;jettySize=auto;html=1;exitX=1;exitY=0.5;exitDx=0;exitDy=0;entryX=0;entryY=0.5;entryDx=0;entryDy=0;" edge="1" parent="1" source="_LsF1Hzda9S3iVp--8nK-22" target="_LsF1Hzda9S3iVp--8nK-23">
          <mxGeometry relative="1" as="geometry" />
        </mxCell>
        <mxCell id="_LsF1Hzda9S3iVp--8nK-22" value="Embedding" style="rounded=0;whiteSpace=wrap;html=1;" vertex="1" parent="1">
          <mxGeometry x="280" y="600" width="80" height="40" as="geometry" />
        </mxCell>
        <mxCell id="_LsF1Hzda9S3iVp--8nK-28" style="edgeStyle=orthogonalEdgeStyle;rounded=0;orthogonalLoop=1;jettySize=auto;html=1;exitX=1;exitY=0.5;exitDx=0;exitDy=0;entryX=0;entryY=0.5;entryDx=0;entryDy=0;" edge="1" parent="1" source="_LsF1Hzda9S3iVp--8nK-23" target="_LsF1Hzda9S3iVp--8nK-24">
          <mxGeometry relative="1" as="geometry" />
        </mxCell>
        <mxCell id="_LsF1Hzda9S3iVp--8nK-23" value="Cluster into intents" style="rounded=0;whiteSpace=wrap;html=1;" vertex="1" parent="1">
          <mxGeometry x="399" y="600" width="80" height="40" as="geometry" />
        </mxCell>
        <mxCell id="_LsF1Hzda9S3iVp--8nK-31" style="edgeStyle=orthogonalEdgeStyle;rounded=0;orthogonalLoop=1;jettySize=auto;html=1;exitX=0.5;exitY=0;exitDx=0;exitDy=0;entryX=0.5;entryY=1;entryDx=0;entryDy=0;" edge="1" parent="1" source="_LsF1Hzda9S3iVp--8nK-24" target="_LsF1Hzda9S3iVp--8nK-30">
          <mxGeometry relative="1" as="geometry" />
        </mxCell>
        <mxCell id="_LsF1Hzda9S3iVp--8nK-24" value="Labeling and&lt;div&gt;summarize&lt;/div&gt;" style="rounded=0;whiteSpace=wrap;html=1;" vertex="1" parent="1">
          <mxGeometry x="520.65" y="600" width="80" height="40" as="geometry" />
        </mxCell>
        <mxCell id="_LsF1Hzda9S3iVp--8nK-30" value="Presentation&lt;div&gt;(UI)&lt;/div&gt;" style="rounded=0;whiteSpace=wrap;html=1;" vertex="1" parent="1">
          <mxGeometry x="520.65" y="520" width="80" height="40" as="geometry" />
        </mxCell>
        <mxCell id="_LsF1Hzda9S3iVp--8nK-33" style="edgeStyle=orthogonalEdgeStyle;rounded=0;orthogonalLoop=1;jettySize=auto;html=1;exitX=0;exitY=0.5;exitDx=0;exitDy=0;entryX=1;entryY=0.5;entryDx=0;entryDy=0;" edge="1" parent="1" source="_LsF1Hzda9S3iVp--8nK-32" target="_LsF1Hzda9S3iVp--8nK-19">
          <mxGeometry relative="1" as="geometry" />
        </mxCell>
        <mxCell id="_LsF1Hzda9S3iVp--8nK-32" value="Data and&lt;div&gt;Parameters&lt;/div&gt;" style="rounded=0;whiteSpace=wrap;html=1;dashed=1;dashPattern=1 4;fontColor=#B3B3B3;" vertex="1" parent="1">
          <mxGeometry x="280" y="520" width="80" height="40" as="geometry" />
        </mxCell>
      </root>
    </mxGraphModel>
  </diagram>
</mxfile>
